<svg xmlns="http://www.w3.org/2000/svg" xml:space="preserve" id="book" width="42" height="32" x="0" y="0" version="1.1" viewBox="0 0 42 32">
  <g fill="#828282">
    <path d="M37.5 1h-16c-.397 0-.74.136-1 .362a1.502 1.502 0 0 0-1-.362h-16C2.631 1 2 1.631 2 2.5v28c0 .869.631 1.5 1.5 1.5h16c.397 0 .74-.136 1-.362.26.226.603.362 1 .362h16c.869 0 1.5-.631 1.5-1.5v-28c0-.869-.631-1.5-1.5-1.5zm-18 30h-16c-.313 0-.5-.187-.5-.5v-28c0-.313.187-.5.5-.5h16c.313 0 .5.187.5.5V30.5c0 .313-.187.5-.5.5zm18.5-.5c0 .313-.187.5-.5.5h-16c-.313 0-.5-.187-.5-.5V2.5c0-.313.187-.5.5-.5h16c.313 0 .5.187.5.5v28zM40.5 3a.5.5 0 0 0-.5.5v26a.5.5 0 0 0 1 0v-26a.5.5 0 0 0-.5-.5zM.5 30a.5.5 0 0 0 .5-.5v-26a.5.5 0 0 0-1 0v26a.5.5 0 0 0 .5.5z"></path>
    <path d="M17.5 10h-12a.5.5 0 0 0 0 1h12a.5.5 0 0 0 0-1zM17.5 14h-12a.5.5 0 0 0 0 1h12a.5.5 0 0 0 0-1zM17.5 6h-12a.5.5 0 0 0 0 1h12a.5.5 0 0 0 0-1zM17.5 18h-12a.5.5 0 0 0 0 1h12a.5.5 0 0 0 0-1zM17.5 22h-12a.5.5 0 0 0 0 1h12a.5.5 0 0 0 0-1zM17.5 26h-12a.5.5 0 0 0 0 1h12a.5.5 0 0 0 0-1zM35.5 10h-12a.5.5 0 0 0 0 1h12a.5.5 0 0 0 0-1zM35.5 14h-12a.5.5 0 0 0 0 1h12a.5.5 0 0 0 0-1zM35.5 6h-12a.5.5 0 0 0 0 1h12a.5.5 0 0 0 0-1zM35.5 18h-12a.5.5 0 0 0 0 1h12a.5.5 0 0 0 0-1zM35.5 22h-12a.5.5 0 0 0 0 1h12a.5.5 0 0 0 0-1zM35.5 26h-12a.5.5 0 0 0 0 1h12a.5.5 0 0 0 0-1z"></path>
  </g>
</svg>
