<svg xmlns="http://www.w3.org/2000/svg" width="200" height="200" id="business">
  <path fill="#5E889E" d="M135.505 55.02c-.268-1.174-.921-2.286-1.949-3.184-1.027-.889-2.291-1.43-3.601-1.627l-21.025-4.067 6.082 4.038-9.604 30.104L100 57.919l-5.41 22.365-9.598-30.104 6.08-4.038-21.028 4.067a7.175 7.175 0 0 0-3.603 1.627c-1.029.897-1.677 2.009-1.945 3.184l-6.233 27.386 11.76 4.08c3.906 4.06 14.831 7.045 27.94 7.327H102.039c13.105-.282 24.03-3.268 27.938-7.327l11.767-4.08-6.239-27.386z"></path>
  <path fill="#5E889E" d="m100 49.196-4.849 1.737L100 57.919l4.851-6.986zM117.995 22.233c0-12.429-5.114-22.169-17.996-22.169C87.115.064 82 9.804 82 22.233c-1.342.701-2.226 2.352-.903 5.887.666 1.777 1.843 3.264 2.841 4.041 3.67 9.137 10.89 16.197 16.062 16.197 5.172 0 12.392-7.06 16.061-16.198 1.003-.776 2.174-2.263 2.845-4.041 1.32-3.534.438-5.185-.911-5.886zm53.924 99.363a8.872 8.872 0 0 0-9.133-6.638l-4.579-10.09h-56.515v-7.285h-3.385v7.285H41.789l-4.574 10.09a8.872 8.872 0 0 0-9.135 6.638c-1.226 4.744 1.629 9.587 6.374 10.814 4.75 1.225 9.594-1.631 10.818-6.381 1.082-4.187-1.016-8.441-4.783-10.229l3.922-7.552h53.896v7.284c-4.092.793-7.186 4.39-7.186 8.716a8.876 8.876 0 0 0 8.878 8.876 8.874 8.874 0 0 0 8.876-8.876 8.873 8.873 0 0 0-7.184-8.712v-7.288h53.898l3.919 7.552a8.877 8.877 0 0 0 6.031 16.61c4.749-1.227 7.605-6.067 6.38-10.814zM42 125.187a5.503 5.503 0 0 1-6.695 3.947 5.504 5.504 0 0 1-3.949-6.695 5.502 5.502 0 0 1 6.696-3.947c2.93.756 4.701 3.761 3.948 6.695zm63.496-.939c0 3.03-2.47 5.492-5.497 5.492-3.032 0-5.497-2.462-5.497-5.492s2.464-5.496 5.497-5.496a5.506 5.506 0 0 1 5.497 5.496zm59.199 4.886a5.497 5.497 0 0 1-6.691-3.947 5.498 5.498 0 0 1 3.947-6.695 5.495 5.495 0 0 1 2.744 10.642zM51.431 174.106c-.171-.781-.608-1.521-1.294-2.12a4.72 4.72 0 0 0-2.396-1.085l-15.688-3.044c2.459-1.913 4.908-5.172 6.435-8.973.664-.521 1.449-1.51 1.893-2.69.882-2.353.291-3.451-.606-3.919 0-8.276-3.405-14.765-11.981-14.765-8.578 0-11.983 6.488-11.983 14.765-.896.468-1.485 1.566-.605 3.919.442 1.181 1.229 2.17 1.895 2.69 1.522 3.801 3.971 7.06 6.433 8.973l-15.688 3.044a4.77 4.77 0 0 0-2.4 1.085c-.683.6-1.115 1.339-1.293 2.12L0 192.345l7.83 2.716c2.602 2.701 9.875 4.689 18.604 4.875h2.716c8.728-.186 16.005-2.174 18.605-4.875l7.83-2.716-4.154-18.239zm144.418 0c-.178-.781-.613-1.521-1.295-2.12a4.756 4.756 0 0 0-2.398-1.085l-15.689-3.044c2.463-1.913 4.911-5.172 6.435-8.973.668-.521 1.449-1.51 1.896-2.69.882-2.353.289-3.451-.606-3.919 0-8.276-3.405-14.765-11.981-14.765-8.58 0-11.981 6.488-11.981 14.765-.896.468-1.488 1.566-.606 3.919.442 1.181 1.228 2.17 1.892 2.69 1.531 3.801 3.979 7.06 6.438 8.973l-15.689 3.044a4.74 4.74 0 0 0-2.398 1.085c-.682.6-1.12 1.339-1.295 2.12l-4.154 18.238 7.834 2.716c2.598 2.701 9.875 4.689 18.604 4.875h2.712c8.726-.186 16.003-2.174 18.604-4.875l7.831-2.716-4.154-18.238zm-72.207 0c-.179-.781-.61-1.521-1.296-2.12a4.735 4.735 0 0 0-2.402-1.085l-15.686-3.044c2.467-1.913 4.911-5.172 6.436-8.973.667-.521 1.448-1.51 1.891-2.69.886-2.353.297-3.451-.603-3.919 0-8.276-3.405-14.765-11.982-14.765-8.58 0-11.983 6.488-11.983 14.765-.896.468-1.485 1.566-.605 3.919.446 1.181 1.231 2.17 1.892 2.69 1.527 3.801 3.976 7.06 6.438 8.973l-15.689 3.044a4.747 4.747 0 0 0-2.4 1.085c-.682.6-1.115 1.339-1.295 2.12l-4.151 18.238 7.833 2.716c2.6 2.701 9.875 4.689 18.603 4.875h2.717c8.727-.186 16.004-2.174 18.603-4.875l7.834-2.716-4.155-18.238z"></path>
</svg>
