<svg xmlns="http://www.w3.org/2000/svg" width="32" height="32" id="finance">
  <path d="M14 2a.5.5 0 0 0-.5.5v3.898a9.967 9.967 0 0 0-2.527 1.04l-2.75-2.75a.5.5 0 0 0-.707 0l-2.83 2.83a.5.5 0 0 0 0 .707L7.44 10.98a9.97 9.97 0 0 0-1.046 2.522H2.5a.5.5 0 0 0-.5.5v4a.5.5 0 0 0 .5.5h3.898c.23.888.576 1.737 1.038 2.53l-2.75 2.747a.5.5 0 0 0 0 .707l2.83 2.83a.5.5 0 0 0 .707 0l2.756-2.755c.79.463 1.635.816 2.521 1.048v3.893a.5.5 0 0 0 .5.5h4a.5.5 0 0 0 .5-.5v-3.897a9.967 9.967 0 0 0 2.53-1.039l2.747 2.75a.5.5 0 0 0 .707 0l2.83-2.83a.5.5 0 0 0 0-.707l-2.755-2.756a9.958 9.958 0 0 0 1.046-2.521H29.5a.5.5 0 0 0 .5-.5v-4a.5.5 0 0 0-.5-.5h-3.898a9.964 9.964 0 0 0-1.038-2.527l2.75-2.748a.5.5 0 0 0 0-.71l-2.83-2.83a.5.5 0 0 0-.707 0l-2.756 2.756A9.967 9.967 0 0 0 18.5 6.396V2.502a.5.5 0 0 0-.5-.5h-4V2zm.5 1h3v3.719a.5.5 0 0 0 .395.49c1.059.23 2.068.648 2.978 1.236a.5.5 0 0 0 .625-.066l2.633-2.631 2.123 2.121-2.627 2.625a.5.5 0 0 0-.068.625 9.003 9.003 0 0 1 1.228 2.986.5.5 0 0 0 .488.395H29v3h-3.719a.5.5 0 0 0-.488.395 9 9 0 0 1-1.238 2.978.5.5 0 0 0 .066.625l2.633 2.633-2.123 2.123-2.625-2.625a.5.5 0 0 0-.623-.068 8.998 8.998 0 0 1-2.987 1.226.5.5 0 0 0-.396.488V29h-3v-3.719a.5.5 0 0 0-.395-.488 9 9 0 0 1-2.978-1.238.5.5 0 0 0-.625.064l-2.633 2.633-2.121-2.121 2.625-2.625a.5.5 0 0 0 .068-.625 9.002 9.002 0 0 1-1.228-2.986.5.5 0 0 0-.488-.397H3v-3h3.719a.5.5 0 0 0 .488-.393c.23-1.059.65-2.07 1.238-2.98a.5.5 0 0 0-.066-.625L5.746 7.867 7.87 5.744l2.625 2.627a.5.5 0 0 0 .623.068 8.998 8.998 0 0 1 2.987-1.226.5.5 0 0 0 .396-.488V3zm1.5 7c-3.308 0-6 2.692-6 6s2.692 6 6 6 6-2.692 6-6-2.692-6-6-6zm0 1c2.767 0 5 2.233 5 5s-2.233 5-5 5-5-2.233-5-5 2.233-5 5-5zm-.283 1v.926a2.4 2.4 0 0 0-.682.181c-.203.09-.377.206-.521.346-.14.14-.25.305-.328.496-.074.191-.112.4-.112.631 0 .25.044.471.13.662.088.191.213.36.376.506.166.146.367.273.6.383.236.107.503.2.799.281.221.073.409.15.564.229.159.078.287.163.383.255.1.093.172.193.217.3a.901.901 0 0 1 .066.349c0 .152-.027.29-.082.414a.857.857 0 0 1-.244.31c-.104.085-.234.15-.389.198a1.844 1.844 0 0 1-.943.013.984.984 0 0 1-.66-.568 1.459 1.459 0 0 1-.106-.594h-.976c0 .318.05.59.15.817.1.224.232.412.398.56.17.15.366.262.584.34.219.079.443.131.676.156V20h.772v-.809c.277-.028.526-.083.748-.168.222-.084.41-.197.566-.337.155-.14.276-.306.361-.497.086-.193.127-.41.127-.652a1.63 1.63 0 0 0-.123-.652 1.425 1.425 0 0 0-.359-.498 2.307 2.307 0 0 0-.588-.375 5.414 5.414 0 0 0-.805-.295 4.68 4.68 0 0 1-.6-.23 1.821 1.821 0 0 1-.388-.258.819.819 0 0 1-.215-.295c-.04-.11-.062-.23-.062-.366 0-.146.022-.28.062-.4a.822.822 0 0 1 .522-.51c.13-.047.281-.07.459-.07.17 0 .322.031.455.096a.926.926 0 0 1 .334.27c.089.114.155.25.199.407.048.158.072.332.072.52h.971c0-.57-.143-1.02-.428-1.348-.28-.331-.68-.533-1.197-.603V12h-.783z" color="#000" font-family="sans-serif" font-weight="400" overflow="visible" style="line-height:normal;text-indent:0;text-align:start;text-decoration-line:none;text-decoration-style:solid;text-decoration-color:#000;text-transform:none;block-progression:tb;white-space:normal;isolation:auto;mix-blend-mode:normal;solid-color:#000;solid-opacity:1"></path>
</svg>
